<svg width="127" height="127" viewBox="0 0 127 127" fill="none" xmlns="http://www.w3.org/2000/svg">
<g clip-path="url(#clip0_943_26)" filter="url(#filter0_dd_943_26)">
<path d="M59.2355 55.2737C60.3271 56.2942 61.7398 56.9933 63.3373 57.1955L77.0029 58.9258L76.1639 65.552L85.6654 60.0226L89.4025 60.4958C93.431 61.0059 97.109 58.1636 97.6175 54.1473L100.908 28.1617C101.416 24.1454 98.5628 20.4762 94.5341 19.9661L68.4688 16.6658C64.4403 16.1557 60.7623 18.998 60.2538 23.0143L56.2176 54.8916L59.2355 55.2737Z" fill="#F7F3F1"/>
<path d="M94.5342 19.9661L88.2864 19.175C92.3151 19.6851 95.1686 23.3545 94.6601 27.3706L91.3699 53.3563C90.8614 57.3726 87.1834 60.2148 83.1548 59.7047L79.4178 59.2316L76.7691 60.7729L76.164 65.552L85.6655 60.0226L89.4025 60.4958C93.4311 61.0059 97.1091 58.1636 97.6176 54.1473L100.908 28.1617C101.416 24.1456 98.5628 20.4762 94.5342 19.9661Z" fill="#EFE7E3"/>
<path d="M72.0986 47.4749L72.7734 48.1786C73.8432 49.2945 75.2637 50.0092 76.7973 50.2034L87.4704 51.5548C88.4821 51.6829 89.4037 50.942 89.485 49.9135C89.5612 48.9503 90.7125 40.2358 90.8369 39.2527C90.9614 38.2695 90.2653 37.3714 89.282 37.2469L82.0473 36.3087L83.1992 34.3222C83.7897 33.3039 84.1373 32.163 84.2151 30.9885C84.2929 29.8139 84.0987 28.6372 83.6477 27.5499C83.1355 26.485 81.5435 26.6514 81.3602 27.8574C81.1219 29.7394 80.2047 31.4696 78.7809 32.7231L73.5047 37.3608L71.8223 37.1478L70.5397 47.2773L72.0986 47.4749Z" fill="#FFD36C"/>
<path d="M71.1748 48.9896L66.3019 48.3726C66.1472 48.3531 66.0066 48.2728 65.9111 48.1496C65.8155 48.0264 65.7729 47.8702 65.7925 47.7155L67.3653 35.2935C67.3849 35.1388 67.4651 34.9982 67.5883 34.9027C67.7116 34.8071 67.8677 34.7645 68.0224 34.7841L72.8953 35.401C72.9719 35.4107 73.0459 35.4354 73.1129 35.4737C73.18 35.512 73.2388 35.5631 73.2861 35.6241C73.3334 35.6851 73.3682 35.7549 73.3886 35.8293C73.409 35.9038 73.4144 35.9816 73.4047 36.0582L71.8319 48.4802C71.8123 48.6349 71.732 48.7754 71.6088 48.8709C71.4856 48.9664 71.3295 49.0091 71.1748 48.9896Z" fill="#8EE6F3"/>
<path d="M57.597 68.2977L60.9177 42.0711C61.3187 38.904 59.0685 36.0104 55.8915 35.6082L35.3369 33.0056C32.16 32.6034 29.2595 34.8448 28.8585 38.012L26.2639 58.5038C25.8629 61.671 28.1131 64.5646 31.2901 64.9668L42.582 66.3965L41.9142 71.6708L49.4131 67.2615L57.597 68.2977Z" fill="#72D1FB"/>
<path d="M55.8916 35.6082L47.7461 34.5768C50.9229 34.9791 53.1733 37.8727 52.7723 41.0398L49.4516 67.2663L57.5972 68.2977L60.9179 42.0712C61.3187 38.904 59.0685 36.0104 55.8916 35.6082Z" fill="#62A6FD"/>
<path d="M50.9152 52.927L46.7812 52.4035L47.5809 49.7218L51.262 50.1879C52.7104 50.3713 52.9948 48.1256 51.5463 47.9422L48.2365 47.5231L49.3283 43.8618C49.7455 42.4629 47.5765 41.8159 47.1591 43.2151L45.9605 47.235L43.2518 46.892L44.3436 43.2307C44.7607 41.8318 42.592 41.1846 42.1744 42.584L40.9757 46.6038L36.4705 46.0334C35.0221 45.85 34.7377 48.0956 36.1862 48.279L40.3201 48.8025L39.5204 51.4842L35.8394 51.0181C34.3909 50.8347 34.1066 53.0804 35.555 53.2638L38.8648 53.6829L37.773 57.3442C37.3602 58.7283 39.5243 59.392 39.9422 57.9909L41.1409 53.971L43.8496 54.314L42.7578 57.9753C42.3449 59.3594 44.5091 60.0232 44.927 58.622L46.1256 54.6022L50.6309 55.1726C52.0793 55.356 52.3636 53.1104 50.9152 52.927ZM44.5052 52.1154L41.7966 51.7724L42.5963 49.0907L45.305 49.4336L44.5052 52.1154Z" fill="#F7F3F1"/>
<path d="M69.2548 65.5165L54.6682 63.6696C52.4138 63.3841 50.3554 64.9747 50.0708 67.2223L48.2296 81.7642C47.945 84.0118 49.542 86.0652 51.7965 86.3507L59.8097 87.3653L59.3358 91.1083L64.6574 87.9792L66.383 88.1977C68.6375 88.4831 70.6958 86.8926 70.9804 84.645L72.8217 70.103C73.1062 67.8554 71.5093 65.8019 69.2548 65.5165Z" fill="#FA9084"/>
<path d="M69.2545 65.5164L62.9667 64.7203C65.2212 65.0057 66.8182 67.0591 66.5336 69.3067L64.6923 83.8488C64.4077 86.0964 62.3494 87.687 60.0949 87.4015L59.8094 87.3654L59.3355 91.1083L64.6572 87.9792L66.3827 88.1976C68.6372 88.4831 70.6956 86.8925 70.9801 84.6449L72.8214 70.1028C73.106 67.8554 71.509 65.8018 69.2545 65.5164Z" fill="#FF6CB5"/>
<path d="M59.8997 80.8747C63.6454 79.4583 65.6644 78.1053 65.975 75.6524C66.4034 72.2691 62.3659 70.8985 60.8605 73.2861C59.8391 70.4928 55.7461 70.9199 55.3177 74.303C55.0072 76.7559 56.6252 78.5693 59.8997 80.8747Z" fill="#F7F3F1"/>
</g>
<defs>
<filter id="filter0_dd_943_26" x="-5.24725" y="-4.08582" width="135.046" height="135.046" filterUnits="userSpaceOnUse" color-interpolation-filters="sRGB">
<feFlood flood-opacity="0" result="BackgroundImageFix"/>
<feColorMatrix in="SourceAlpha" type="matrix" values="0 0 0 0 0 0 0 0 0 0 0 0 0 0 0 0 0 0 127 0" result="hardAlpha"/>
<feMorphology radius="3.6585" operator="erode" in="SourceAlpha" result="effect1_dropShadow_943_26"/>
<feOffset dy="9.75599"/>
<feGaussianBlur stdDeviation="14.634"/>
<feColorMatrix type="matrix" values="0 0 0 0 0.0627451 0 0 0 0 0.0941176 0 0 0 0 0.156863 0 0 0 0.1 0"/>
<feBlend mode="normal" in2="BackgroundImageFix" result="effect1_dropShadow_943_26"/>
<feColorMatrix in="SourceAlpha" type="matrix" values="0 0 0 0 0 0 0 0 0 0 0 0 0 0 0 0 0 0 127 0" result="hardAlpha"/>
<feMorphology radius="3.6585" operator="erode" in="SourceAlpha" result="effect2_dropShadow_943_26"/>
<feOffset dy="9.75599"/>
<feGaussianBlur stdDeviation="14.634"/>
<feColorMatrix type="matrix" values="0 0 0 0 0.0627451 0 0 0 0 0.0941176 0 0 0 0 0.156863 0 0 0 0.05 0"/>
<feBlend mode="normal" in2="effect1_dropShadow_943_26" result="effect2_dropShadow_943_26"/>
<feBlend mode="normal" in="SourceGraphic" in2="effect2_dropShadow_943_26" result="shape"/>
</filter>
<clipPath id="clip0_943_26">
<rect width="75" height="75" fill="white" transform="translate(29.7832 11.7677) rotate(7.21612)"/>
</clipPath>
</defs>
</svg>
