<svg width="91" height="91" viewBox="0 0 91 91" fill="none" xmlns="http://www.w3.org/2000/svg">
<path d="M75.6166 26.7295L59.0176 37.2575C56.8615 33.8581 53.409 31.2809 49.1714 30.3326L53.4641 11.1519C62.9985 13.2857 70.7673 19.0817 75.6166 26.7295Z" fill="url(#paint0_linear_943_51)"/>
<path d="M37.3129 32.3999C33.9135 34.556 31.3364 38.0086 30.388 42.2461L11.2074 37.9535C13.3412 28.4191 19.1372 20.6503 26.785 15.801L37.3129 32.3999Z" fill="url(#paint1_linear_943_51)"/>
<path d="M53.4641 11.152L49.1715 30.3327C44.9339 29.3843 40.7122 30.2439 37.3128 32.4L26.7848 15.8011C34.4314 10.9499 43.9296 9.01819 53.4641 11.152Z" fill="url(#paint2_linear_943_51)"/>
<path d="M80.2658 53.4087L61.0851 49.1161C62.0334 44.8785 61.1738 40.6568 59.0177 37.2574L75.6166 26.7295C80.4679 34.376 82.3995 43.8742 80.2658 53.4087Z" fill="url(#paint3_linear_943_51)"/>
<path d="M80.2658 53.4087C78.132 62.9431 72.336 70.7119 64.6882 75.5612L54.1602 58.9623C57.5596 56.8062 60.1367 53.3536 61.0851 49.1161L80.2658 53.4087Z" fill="url(#paint4_linear_943_51)"/>
<path d="M32.4554 54.1048L15.8565 64.6328C11.0052 56.9862 9.07357 47.488 11.2074 37.9535L30.388 42.2461C29.4397 46.4837 30.2993 50.7054 32.4554 54.1048Z" fill="url(#paint5_linear_943_51)"/>
<path d="M64.6881 75.5614C57.0415 80.4126 47.5433 82.3443 38.0089 80.2105L42.3015 61.0298C46.539 61.9781 50.7607 61.1185 54.1601 58.9624L64.6881 75.5614Z" fill="url(#paint6_linear_943_51)"/>
<path d="M42.3015 61.0298L38.0089 80.2105C28.4744 78.0767 20.7056 72.2807 15.8563 64.6329L32.4553 54.1049C34.6114 57.5044 38.0639 60.0815 42.3015 61.0298Z" fill="url(#paint7_linear_943_51)"/>
<path d="M68.4033 31.3045L59.0177 37.2574C56.8616 33.858 53.409 31.2809 49.1715 30.3325L51.5984 19.4884C58.8322 21.1073 64.7226 25.5037 68.4033 31.3045Z" fill="url(#paint8_linear_943_51)"/>
<path d="M37.3129 32.4001C33.9135 34.5562 31.3364 38.0088 30.388 42.2463L19.5439 39.8194C21.1628 32.5856 25.5591 26.6951 31.36 23.0145L37.3129 32.4001Z" fill="url(#paint9_linear_943_51)"/>
<path d="M51.5985 19.4885L49.1716 30.3326C44.934 29.3843 40.7123 30.2439 37.3129 32.4L31.36 23.0144C37.1621 19.3358 44.3646 17.8696 51.5985 19.4885Z" fill="url(#paint10_linear_943_51)"/>
<path d="M71.9292 51.5431L61.0851 49.1162C62.0334 44.8787 61.1738 40.657 59.0177 37.2576L68.4033 31.3047C72.0819 37.1068 73.5481 44.3093 71.9292 51.5431Z" fill="url(#paint11_linear_943_51)"/>
<path d="M71.9292 51.543C70.3103 58.7768 65.9139 64.6673 60.1131 68.3479L54.1602 58.9623C57.5596 56.8062 60.1367 53.3536 61.0851 49.1161L71.9292 51.543Z" fill="url(#paint12_linear_943_51)"/>
<path d="M32.4554 54.1048L23.0698 60.0577C19.3912 54.2556 17.925 47.0531 19.5439 39.8193L30.388 42.2462C29.4397 46.4837 30.2993 50.7054 32.4554 54.1048Z" fill="url(#paint13_linear_943_51)"/>
<path d="M60.113 68.348C54.3109 72.0266 47.1084 73.4928 39.8746 71.8739L42.3015 61.0298C46.539 61.9781 50.7607 61.1185 54.1601 58.9624L60.113 68.348Z" fill="url(#paint14_linear_943_51)"/>
<path d="M42.3016 61.0298L39.8747 71.8739C32.6408 70.2549 26.7504 65.8586 23.0698 60.0578L32.4554 54.1049C34.6115 57.5043 38.0641 60.0814 42.3016 61.0298Z" fill="url(#paint15_linear_943_51)"/>
<path d="M78.5344 32.4009L61.2921 43.3369C61.5746 45.2071 61.523 47.1597 61.0851 49.116C60.1368 53.3535 57.5597 56.8061 54.1602 58.9622C50.7608 61.1183 46.5391 61.9779 42.3016 61.0296C40.3453 60.5918 38.5568 59.8062 36.9855 58.7535L19.7432 69.6895C24.4543 74.7992 30.7139 78.5776 38.0091 80.2103C47.5436 82.3441 57.0418 80.4124 64.6884 75.5612C72.3361 70.712 78.1322 62.9431 80.266 53.4086C81.8985 46.1135 81.1486 38.8405 78.5344 32.4009Z" fill="url(#paint16_linear_943_51)"/>
<path d="M13.3949 53.4437L1.40387 72.4221C0.82373 73.3403 1.57181 74.52 2.64975 74.3866L24.9288 71.6289C29.9656 68.4343 18.4315 50.2493 13.3949 53.4437Z" fill="url(#paint17_linear_943_51)"/>
<path d="M55.4044 52.3015L24.9286 71.6287C24.6795 70.8326 24.2009 70.0704 23.5078 69.4512C22.5599 68.6097 20.7942 68.5591 19.5431 68.6522C19.2711 68.671 19.0676 68.4859 19.0182 68.2614C19.001 68.1894 19 68.1145 19.0152 68.0421C19.0304 67.9696 19.0615 67.9015 19.1063 67.8425C19.109 67.8431 19.1096 67.8404 19.1096 67.8404C19.2073 67.7069 19.2981 67.5685 19.3819 67.4258L19.4962 67.2206C19.5001 67.2158 19.5007 67.2131 19.5019 67.2077C19.6172 66.9858 19.7133 66.7596 19.7917 66.5236C19.8175 66.4468 19.8412 66.3667 19.8641 66.2892C19.9001 66.1597 19.9308 66.029 19.9558 65.897C20.1363 64.9524 20.0259 63.9753 19.6391 63.0949C19.5417 62.8718 19.427 62.6566 19.2962 62.4514C19.1663 62.2454 19.0206 62.05 18.8603 61.8668C18.1217 61.0181 17.1254 60.4818 16.0665 60.3018C15.9866 60.2896 15.9041 60.2769 15.8236 60.2673C15.5768 60.2377 15.3284 60.2276 15.0812 60.2379C15.0758 60.2366 15.0731 60.236 15.067 60.2375L14.8327 60.2535C14.7486 60.2603 14.6666 60.2704 14.584 60.2833C14.5048 60.294 14.4248 60.3075 14.3443 60.3237C14.3415 60.3231 14.3415 60.3231 14.3382 60.3252C14.2658 60.3406 14.1909 60.3397 14.1189 60.3226C14.0469 60.3055 13.9796 60.2726 13.9218 60.2263C13.7397 60.0859 13.659 59.8228 13.792 59.5849C14.4095 58.4928 15.1157 56.8767 14.7586 55.6606C14.4942 54.767 14.0117 54.0096 13.3949 53.4445L43.8687 34.1141C45.242 33.2453 47.0591 33.652 47.9286 35.0227L49.5726 37.6148L54.6689 45.6499L56.3129 48.2419C57.1822 49.6124 56.7756 51.4293 55.4044 52.3015Z" fill="url(#paint18_linear_943_51)"/>
<path d="M54.6689 45.6496L19.0183 68.2612C19.001 68.1893 19 68.1144 19.0152 68.0419C19.0304 67.9695 19.0615 67.9013 19.1063 67.8424C19.109 67.843 19.1096 67.8403 19.1096 67.8403C19.2081 67.7058 19.7165 66.7573 19.7916 66.5235C19.8207 66.4445 19.8436 66.3671 19.8639 66.2891C20.1525 65.2544 20.092 64.1246 19.6391 63.0948C19.5417 62.8717 19.427 62.6565 19.2962 62.4512C19.1663 62.2453 19.0206 62.0499 18.8603 61.8666C18.1218 61.0179 17.1254 60.4817 16.0665 60.3017C15.9873 60.2868 15.9074 60.2746 15.8236 60.2672C15.5775 60.2353 15.3291 60.2254 15.0813 60.2377C15.0758 60.2365 15.0731 60.2359 15.067 60.2374C14.9896 60.24 14.4249 60.3072 14.3443 60.3234C14.3416 60.3228 14.3416 60.3228 14.3383 60.3249C14.2659 60.3403 14.1909 60.3394 14.1189 60.3223C14.0469 60.3052 13.9796 60.2723 13.9219 60.226L49.5725 37.6144L54.6689 45.6496Z" fill="url(#paint19_linear_943_51)"/>
<path d="M6.14062 70.795C5.55391 69.8686 4.82703 69.0389 3.9859 68.3354L1.40406 72.4218C0.823922 73.3401 1.572 74.5198 2.64998 74.3862L7.44706 73.7925C7.16932 72.7317 6.72859 71.7205 6.14062 70.795Z" fill="url(#paint20_linear_943_51)"/>
<path d="M87.6783 19.0793L50.8785 42.4198L47.4643 37.0367C46.7201 35.8634 47.068 34.3087 48.2413 33.5645L51.4609 31.5225C52.149 31.0861 52.7444 30.5184 53.2131 29.8518C53.6818 29.1853 54.0147 28.433 54.1926 27.6378L54.9263 24.3593C55.5036 21.7801 57.6513 19.8496 60.2774 19.5497L86.7757 16.5235C88.2428 16.3559 88.9251 18.2884 87.6783 19.0793Z" fill="url(#paint21_linear_943_51)"/>
<path d="M87.6785 19.0793L50.8787 42.4198L54.293 47.8029C55.0372 48.9763 56.5918 49.3242 57.7652 48.58L60.9847 46.538C61.6728 46.1015 62.4402 45.8049 63.2429 45.665C64.0456 45.5251 64.8681 45.5447 65.6632 45.7227L68.9415 46.4564C71.5208 47.0336 74.1826 45.9136 75.5733 43.6659L89.6057 20.9851C90.3826 19.7296 88.9253 18.2884 87.6785 19.0793Z" fill="url(#paint22_linear_943_51)"/>
<path d="M70.0245 31.4878L88.5087 19.7641C88.9689 19.4722 89.1505 18.8701 88.8889 18.392C88.8219 18.269 88.7303 18.161 88.6199 18.0748C88.5094 17.9886 88.3825 17.926 88.2468 17.8909C88.1112 17.8558 87.9698 17.8489 87.8314 17.8706C87.693 17.8924 87.5606 17.9423 87.4423 18.0174L68.9717 29.7326C67.7623 30.4996 66.2718 30.7342 64.9072 30.2996C63.6449 29.8978 62.2052 30.0875 61.0434 30.9713C59.3971 32.2236 58.9025 34.5304 59.8874 36.3494C61.0699 38.5333 63.8293 39.226 65.8907 37.9186C66.9702 37.2339 67.6347 36.1422 67.8116 34.9704C68.0269 33.5425 68.8051 32.2612 70.0245 31.4878Z" fill="url(#paint23_linear_943_51)"/>
<path d="M53.5487 29.3176C53.0461 30.214 52.3287 30.9716 51.461 31.5223L48.2414 33.5643C47.068 34.3085 46.7201 35.8631 47.4643 37.0365L50.8786 42.4196L54.2929 47.8027C55.0371 48.9761 56.5917 49.324 57.7651 48.5798L60.9846 46.5378C61.8526 45.9874 62.8437 45.6614 63.8688 45.5889L53.5487 29.3176Z" fill="url(#paint24_linear_943_51)"/>
<path d="M50.8976 55.1599L39.362 36.9721L46.6103 32.3749C47.4498 31.8424 48.5618 32.0913 49.0941 32.9307L58.7018 48.0787C59.2342 48.9181 58.9854 50.0302 58.1459 50.5625L50.8976 55.1599Z" fill="url(#paint25_linear_943_51)"/>
<defs>
<linearGradient id="paint0_linear_943_51" x1="50.0171" y1="9.01699" x2="67.7362" y2="36.9538" gradientUnits="userSpaceOnUse">
<stop stop-color="#FFF5D9"/>
<stop offset="1" stop-color="#FFCE47"/>
</linearGradient>
<linearGradient id="paint1_linear_943_51" x1="18.487" y1="26.0744" x2="26.4182" y2="38.5791" gradientUnits="userSpaceOnUse">
<stop stop-color="#6FA953"/>
<stop offset="1" stop-color="#43765A"/>
</linearGradient>
<linearGradient id="paint2_linear_943_51" x1="39.1492" y1="11.9388" x2="49.5721" y2="28.3722" gradientUnits="userSpaceOnUse">
<stop stop-color="#E4E08E"/>
<stop offset="1" stop-color="#6FA953"/>
</linearGradient>
<linearGradient id="paint3_linear_943_51" x1="61.4767" y1="27.0846" x2="78.3935" y2="53.7567" gradientUnits="userSpaceOnUse">
<stop stop-color="#FFCE47"/>
<stop offset="1" stop-color="#FF9356"/>
</linearGradient>
<linearGradient id="paint4_linear_943_51" x1="61.9169" y1="47.8354" x2="71.7239" y2="63.2978" gradientUnits="userSpaceOnUse">
<stop stop-color="#FF9356"/>
<stop offset="1" stop-color="#FF755C"/>
</linearGradient>
<linearGradient id="paint5_linear_943_51" x1="13.7559" y1="38.672" x2="25.2958" y2="56.8663" gradientUnits="userSpaceOnUse">
<stop stop-color="#7ACBFF"/>
<stop offset="1" stop-color="#45A2E0"/>
</linearGradient>
<linearGradient id="paint6_linear_943_51" x1="41.8538" y1="62.9162" x2="51.5349" y2="78.1797" gradientUnits="userSpaceOnUse">
<stop stop-color="#FF755C"/>
<stop offset="1" stop-color="#FF4181"/>
</linearGradient>
<linearGradient id="paint7_linear_943_51" x1="22.0106" y1="51.687" x2="45.4201" y2="88.5958" gradientUnits="userSpaceOnUse">
<stop stop-color="#FF4181"/>
<stop offset="1" stop-color="#843561"/>
</linearGradient>
<linearGradient id="paint8_linear_943_51" x1="62.3008" y1="36.358" x2="51.3955" y2="19.1641" gradientUnits="userSpaceOnUse">
<stop stop-color="#FFF5D9"/>
<stop offset="1" stop-color="#FFCE47"/>
</linearGradient>
<linearGradient id="paint9_linear_943_51" x1="31.9604" y1="41.6785" x2="18.4441" y2="20.3681" gradientUnits="userSpaceOnUse">
<stop stop-color="#6FA953"/>
<stop offset="1" stop-color="#43765A"/>
</linearGradient>
<linearGradient id="paint10_linear_943_51" x1="47.2755" y1="30.3901" x2="35.2467" y2="11.4249" gradientUnits="userSpaceOnUse">
<stop stop-color="#E4E08E"/>
<stop offset="1" stop-color="#6FA953"/>
</linearGradient>
<linearGradient id="paint11_linear_943_51" x1="71.8017" y1="51.3377" x2="59.1033" y2="31.3167" gradientUnits="userSpaceOnUse">
<stop stop-color="#FFCE47"/>
<stop offset="1" stop-color="#FF9356"/>
</linearGradient>
<linearGradient id="paint12_linear_943_51" x1="67.9946" y1="63.0569" x2="59.511" y2="49.6813" gradientUnits="userSpaceOnUse">
<stop stop-color="#FF9356"/>
<stop offset="1" stop-color="#FF755C"/>
</linearGradient>
<linearGradient id="paint13_linear_943_51" x1="32.3619" y1="60.0333" x2="16.6987" y2="35.3378" gradientUnits="userSpaceOnUse">
<stop stop-color="#7ACBFF"/>
<stop offset="1" stop-color="#45A2E0"/>
</linearGradient>
<linearGradient id="paint14_linear_943_51" x1="52.4205" y1="73.9371" x2="41.004" y2="55.9372" gradientUnits="userSpaceOnUse">
<stop stop-color="#FF755C"/>
<stop offset="1" stop-color="#FF4181"/>
</linearGradient>
<linearGradient id="paint15_linear_943_51" x1="40.1316" y1="72.2834" x2="26.1987" y2="50.3161" gradientUnits="userSpaceOnUse">
<stop stop-color="#FF4181"/>
<stop offset="1" stop-color="#843561"/>
</linearGradient>
<linearGradient id="paint16_linear_943_51" x1="57.2436" y1="63.8239" x2="49.1465" y2="51.0574" gradientUnits="userSpaceOnUse">
<stop stop-color="#843561" stop-opacity="0"/>
<stop offset="1" stop-color="#3A2F4D"/>
</linearGradient>
<linearGradient id="paint17_linear_943_51" x1="6.40181" y1="57.8444" x2="17.9359" y2="76.0296" gradientUnits="userSpaceOnUse">
<stop stop-color="#FFE0EA"/>
<stop offset="1" stop-color="#FFC0D5"/>
</linearGradient>
<linearGradient id="paint18_linear_943_51" x1="14.6129" y1="48.0023" x2="55.215" y2="57.0889" gradientUnits="userSpaceOnUse">
<stop stop-color="#FFCE47"/>
<stop offset="1" stop-color="#FF9356"/>
</linearGradient>
<linearGradient id="paint19_linear_943_51" x1="39.0811" y1="60.4834" x2="27.4374" y2="42.1254" gradientUnits="userSpaceOnUse">
<stop stop-color="#FFCE47"/>
<stop offset="1" stop-color="#FF9356"/>
</linearGradient>
<linearGradient id="paint20_linear_943_51" x1="3.42125" y1="71.7152" x2="6.36426" y2="76.3553" gradientUnits="userSpaceOnUse">
<stop stop-color="#2F73A0"/>
<stop offset="1" stop-color="#174461"/>
</linearGradient>
<linearGradient id="paint21_linear_943_51" x1="67.2541" y1="25.5437" x2="68.4914" y2="29.1963" gradientUnits="userSpaceOnUse">
<stop stop-color="#EDF5FF"/>
<stop offset="1" stop-color="#C7E9FF"/>
</linearGradient>
<linearGradient id="paint22_linear_943_51" x1="70.8394" y1="32.8414" x2="72.4314" y2="38.1877" gradientUnits="userSpaceOnUse">
<stop stop-color="#EDF5FF"/>
<stop offset="1" stop-color="#C7E9FF"/>
</linearGradient>
<linearGradient id="paint23_linear_943_51" x1="76.5682" y1="30.7857" x2="73.0286" y2="25.205" gradientUnits="userSpaceOnUse">
<stop stop-color="#2F73A0"/>
<stop offset="1" stop-color="#174461"/>
</linearGradient>
<linearGradient id="paint24_linear_943_51" x1="56.6444" y1="38.742" x2="53.5956" y2="40.6757" gradientUnits="userSpaceOnUse">
<stop stop-color="#7ACBFF" stop-opacity="0"/>
<stop offset="1" stop-color="#2F73A0"/>
</linearGradient>
<linearGradient id="paint25_linear_943_51" x1="51.1616" y1="41.3337" x2="45.8894" y2="46.6946" gradientUnits="userSpaceOnUse">
<stop stop-color="#2F73A0"/>
<stop offset="1" stop-color="#174461"/>
</linearGradient>
</defs>
</svg>
