<svg width="117" height="131" viewBox="0 0 117 131" fill="none" xmlns="http://www.w3.org/2000/svg">
<g filter="url(#filter0_dd_943_38)">
<path d="M65.1372 63.3898L86.7821 59.972L51.7209 16.6403L31.718 68.6667L53.3618 65.2491" fill="#AFB9D2"/>
<path d="M65.1374 63.3894L75.6941 61.7225L54.9384 37.0074L42.8053 66.9157L53.362 65.2488" fill="#E4EAF7"/>
<path d="M86.7821 59.9724L31.7181 68.667L38.0374 52.2275L43.3133 38.5082L51.7208 16.6406L66.4604 34.8567L75.7049 46.2816L86.7821 59.9724Z" fill="#BEC8DC"/>
<path d="M75.6944 61.7231L42.8053 66.9163L45.1827 61.0568L50.651 47.577L54.9383 37.0074L62.274 45.7433L71.6286 56.8827L75.6944 61.7231Z" fill="#E4EAF7"/>
<path d="M75.7055 46.2816L69.3856 62.7194L49.1169 65.9198L38.0378 52.2276L43.3138 38.5082L58.0517 56.7245L66.4609 34.8567L75.7055 46.2816Z" fill="#95A5B9"/>
<path d="M71.6287 56.8829L69.3856 62.7194L49.1169 65.9198L45.1826 61.057L50.651 47.5771L58.0517 56.7245L62.2741 45.7436L71.6287 56.8829Z" fill="#BEC8DC"/>
<path d="M80.8596 22.4632L60.8569 74.4898L25.7956 31.1578L36.8841 29.4069L57.8248 55.2892L69.7726 24.2138L80.8596 22.4632Z" fill="#7DE6C4"/>
<path d="M69.7727 24.2138L57.8251 55.2889L36.8843 29.4069L47.4405 27.7401L54.9384 37.0078L59.2164 25.8807L69.7727 24.2138Z" fill="#707384"/>
<path d="M88.2988 86.7934L38.5403 94.6503C37.0746 94.8818 35.6991 93.8814 35.4678 92.4163L32.9522 76.4852C32.7208 75.0195 33.7212 73.6445 35.187 73.4131L84.9455 65.5562C86.4112 65.3248 87.786 66.3248 88.0174 67.7903L90.533 83.7216C90.7643 85.1866 89.7644 86.562 88.2988 86.7934Z" fill="#B9EBFF"/>
<path d="M84.9454 65.5556L80.0982 66.3209C81.5639 66.0895 82.9394 67.0898 83.1708 68.555L85.6864 84.4869C85.9177 85.9518 84.9174 87.3274 83.4517 87.5589L88.2989 86.7935C89.7646 86.5621 90.7643 85.1867 90.533 83.7215L88.0173 67.7895C87.786 66.3247 86.4105 65.3242 84.9454 65.5556Z" fill="#A0DCF0"/>
<path d="M39.1948 78.4561C39.1543 78.1996 39.2684 77.9607 39.5371 77.7407C39.8065 77.5202 40.1031 77.3841 40.4275 77.3328C40.8413 77.2675 41.1106 77.3745 41.2344 77.6527L45.2375 86.3403L46.3525 76.8445C46.3846 76.5417 46.608 76.3569 47.0216 76.2916C47.3347 76.2422 47.657 76.2834 47.987 76.4144C48.3171 76.5459 48.5022 76.7345 48.541 76.9803C48.5446 77.0029 48.5421 77.0607 48.5335 77.1536L46.9782 88.2146C46.9486 88.4602 46.8095 88.6688 46.5612 88.8395C46.3129 89.0103 46.0208 89.1224 45.6857 89.1753C44.9137 89.2972 44.4051 89.1254 44.1594 88.6597L39.2547 78.6187C39.2179 78.533 39.1985 78.4787 39.1949 78.4561L39.1948 78.4561ZM50.1556 85.0307L49.5198 81.0043C49.4933 80.8364 49.5777 80.6626 49.773 80.4829C49.9682 80.3032 50.2111 80.1901 50.5021 80.1442C50.7819 80.1 51.042 80.133 51.283 80.2439C51.5242 80.3547 51.6579 80.4934 51.6842 80.6601L52.3183 84.6759C52.38 85.0666 52.5803 85.3923 52.9198 85.6527C53.2594 85.9135 53.63 86.0121 54.0329 85.9485C54.4353 85.885 54.7553 85.6772 54.9919 85.3255C55.2289 84.9741 55.3162 84.6028 55.2545 84.2123L54.6178 80.1802C54.5897 80.0022 54.6741 79.8283 54.8712 79.66C55.0682 79.4915 55.312 79.3847 55.603 79.3387C55.9161 79.2893 56.1846 79.3158 56.4068 79.4179C56.6291 79.5201 56.7546 79.6614 56.7828 79.8401L57.4212 83.8829C57.5643 84.789 57.3315 85.6402 56.7235 86.4348C56.1152 87.2307 55.319 87.7057 54.3343 87.8611C53.3504 88.0165 52.4437 87.8104 51.6141 87.2416C50.7852 86.6738 50.2987 85.9366 50.1556 85.0307ZM58.7245 83.6436L58.4992 82.2169C58.3545 81.3002 58.5884 80.4552 59.2002 79.6819C59.8116 78.9094 60.6264 78.4423 61.6443 78.2816C62.5949 78.1315 63.4565 78.3037 64.2283 78.7976C64.9999 79.2921 65.4577 79.9938 65.6015 80.9043C65.6539 81.2367 65.6553 81.5169 65.6053 81.7467C65.5558 81.9757 65.4509 82.1482 65.2914 82.2643C65.1317 82.3804 64.9813 82.4609 64.8394 82.5059C64.6977 82.5515 64.509 82.5922 64.2744 82.6292L60.8679 83.1671L60.9077 83.4188C60.9836 83.8996 61.2241 84.2601 61.6286 84.5C62.0338 84.7396 62.5327 84.8131 63.1255 84.7195C63.5506 84.6524 63.9531 84.48 64.3334 84.2021C64.7137 83.9242 64.9651 83.7756 65.0884 83.7562C65.3235 83.719 65.5364 83.7972 65.7273 83.99C65.9183 84.1835 66.03 84.3809 66.0618 84.582C66.1112 84.8951 65.8777 85.2507 65.3615 85.6473C64.8449 86.044 64.1671 86.3085 63.3284 86.441C62.1313 86.63 61.1052 86.4683 60.2504 85.9556C59.3957 85.443 58.8869 84.6722 58.7245 83.6436ZM60.6666 81.8921L63.1162 81.5053C63.2954 81.477 63.4163 81.4284 63.4803 81.3598C63.544 81.2906 63.5625 81.173 63.5361 81.0056C63.4784 80.64 63.289 80.3647 62.9672 80.1803C62.6454 79.9953 62.2776 79.9358 61.8644 80.001C61.4727 80.0629 61.1489 80.2287 60.894 80.4995C60.6383 80.7697 60.5396 81.0879 60.5974 81.4535L60.6666 81.8921ZM66.535 82.4618C66.4714 82.0588 66.5114 81.7692 66.6554 81.5918C66.7994 81.4144 67.0673 81.2944 67.4588 81.2326C68.1412 81.1248 68.5408 81.2969 68.6578 81.7483C68.8916 82.9384 69.5625 83.4454 70.6696 83.2705C71.8555 83.0833 72.3468 82.3464 72.1437 81.0601L71.0999 74.45L69.3885 74.7202C69.176 74.7538 68.9931 74.6854 68.84 74.5148C68.6869 74.3443 68.5894 74.1246 68.547 73.8561C68.5064 73.599 68.5304 73.3687 68.6183 73.1659C68.7067 72.9626 68.8627 72.8435 69.0867 72.8081L72.0228 72.3445C72.2801 72.3039 72.5135 72.3302 72.7233 72.4228C72.9327 72.516 73.0543 72.6688 73.0878 72.8813L74.3249 80.7157C74.5332 82.0352 74.3314 83.0619 73.719 83.7947C73.1065 84.5274 72.2247 84.9848 71.0723 85.1667C69.8864 85.354 68.8744 85.2073 68.0361 84.7261C67.198 84.2457 66.6975 83.4905 66.535 82.4618ZM75.9702 82.313C75.9296 82.0559 75.9864 81.7804 76.1403 81.4862C76.2945 81.193 76.4948 81.0264 76.741 80.9876C76.8863 80.9646 77.0624 81.008 77.2692 81.1185C77.4798 81.2319 77.6834 81.3579 77.8791 81.4955C78.0787 81.6366 78.3516 81.7516 78.6986 81.8393C79.0452 81.9277 79.4138 81.9407 79.8055 81.8789C80.3424 81.7941 80.7702 81.6009 81.0898 81.2985C81.4085 80.9955 81.5303 80.6039 81.4543 80.1228C81.4014 79.7877 81.2558 79.5043 81.0189 79.2716C80.7818 79.0403 80.4901 78.8627 80.144 78.7395C79.7734 78.609 79.3968 78.4962 79.0154 78.4016C78.5992 78.2966 78.1872 78.1753 77.7804 78.0382C77.3625 77.8973 76.9741 77.727 76.6155 77.5252C76.257 77.324 75.947 77.0295 75.6851 76.6404C75.4228 76.252 75.2495 75.7893 75.1647 75.2523C75.0697 74.651 75.1063 74.1012 75.2739 73.6033C75.4421 73.1058 75.7072 72.6972 76.0693 72.3781C76.4282 72.0619 76.8342 71.8035 77.2727 71.6124C77.7128 71.4205 78.1894 71.2845 78.7044 71.2032C78.9954 71.1572 79.306 71.1289 79.6368 71.1173C79.9677 71.1069 80.3218 71.1188 80.7001 71.1528C81.0775 71.1876 81.397 71.2844 81.6572 71.4431C81.9176 71.6025 82.0686 71.8137 82.1103 72.0778C82.1496 72.3269 82.1117 72.5972 81.9971 72.8876C81.8826 73.1785 81.6912 73.3447 81.4226 73.3871C81.3219 73.403 81.0312 73.3407 80.5499 73.1982C80.0687 73.057 79.5545 73.0287 79.0063 73.1153C78.4027 73.2106 77.9533 73.3991 77.6595 73.6807C77.3657 73.9623 77.2505 74.3044 77.314 74.7066C77.3652 75.0312 77.5444 75.2925 77.8507 75.4903C78.1573 75.6887 78.5211 75.8317 78.9417 75.92C79.3629 76.0082 79.8235 76.1308 80.3238 76.2862C80.8241 76.4424 81.294 76.6232 81.7338 76.8288C82.1734 77.0346 82.5677 77.3708 82.9166 77.8372C83.2653 78.3035 83.4932 78.8781 83.601 79.5603C83.7821 80.7077 83.5558 81.6506 82.9216 82.389C82.287 83.1282 81.3714 83.592 80.1742 83.781C79.1116 83.9488 78.1656 83.8745 77.3365 83.5583C76.5063 83.2427 76.0514 82.8274 75.9702 82.313Z" fill="#54A1FF"/>
</g>
<defs>
<filter id="filter0_dd_943_38" x="0.186081" y="0.786799" width="115.99" height="129.262" filterUnits="userSpaceOnUse" color-interpolation-filters="sRGB">
<feFlood flood-opacity="0" result="BackgroundImageFix"/>
<feColorMatrix in="SourceAlpha" type="matrix" values="0 0 0 0 0 0 0 0 0 0 0 0 0 0 0 0 0 0 127 0" result="hardAlpha"/>
<feMorphology radius="3.6585" operator="erode" in="SourceAlpha" result="effect1_dropShadow_943_38"/>
<feOffset dy="9.75599"/>
<feGaussianBlur stdDeviation="14.634"/>
<feColorMatrix type="matrix" values="0 0 0 0 0.0627451 0 0 0 0 0.0941176 0 0 0 0 0.156863 0 0 0 0.1 0"/>
<feBlend mode="normal" in2="BackgroundImageFix" result="effect1_dropShadow_943_38"/>
<feColorMatrix in="SourceAlpha" type="matrix" values="0 0 0 0 0 0 0 0 0 0 0 0 0 0 0 0 0 0 127 0" result="hardAlpha"/>
<feMorphology radius="3.6585" operator="erode" in="SourceAlpha" result="effect2_dropShadow_943_38"/>
<feOffset dy="9.75599"/>
<feGaussianBlur stdDeviation="14.634"/>
<feColorMatrix type="matrix" values="0 0 0 0 0.0627451 0 0 0 0 0.0941176 0 0 0 0 0.156863 0 0 0 0.05 0"/>
<feBlend mode="normal" in2="effect1_dropShadow_943_38" result="effect2_dropShadow_943_38"/>
<feBlend mode="normal" in="SourceGraphic" in2="effect2_dropShadow_943_38" result="shape"/>
</filter>
</defs>
</svg>
